<svg width="30" height="30" viewBox="0 0 30 30" fill="none" xmlns="http://www.w3.org/2000/svg">
<g id="teenyicons:link-outline" clip-path="url(#clip0_1177_3180)">
<path id="Vector" d="M9.24137 13.0755L3.15113 19.1657C2.1327 20.1842 1.56055 21.5654 1.56055 23.0057C1.56055 23.7189 1.70101 24.4251 1.97393 25.0839C2.24684 25.7428 2.64685 26.3415 3.15113 26.8457C3.6554 27.35 4.25407 27.75 4.91293 28.0229C5.5718 28.2958 6.27797 28.4363 6.99113 28.4363C8.43141 28.4363 9.8127 27.8642 10.8311 26.8457L16.9214 20.7555M20.7614 16.9155L26.8516 10.8252C27.8364 9.79997 28.38 8.42945 28.3657 7.00788C28.3514 5.58632 27.7803 4.22701 26.7751 3.22176C25.7698 2.21651 24.4105 1.64544 22.989 1.63113C21.5674 1.61683 20.1969 2.16043 19.1716 3.14525L13.0814 9.23549M9.24137 20.7555L20.7614 9.23549" stroke="#85EADC" stroke-width="2.304"/>
</g>
<defs>
<clipPath id="clip0_1177_3180">
<rect width="28.8" height="28.8" fill="white" transform="translate(0.599609 0.599609)"/>
</clipPath>
</defs>
</svg>
